<svg width="69" height="73" viewBox="0 0 69 73" fill="none" xmlns="http://www.w3.org/2000/svg">
<g clip-path="url(#clip0_347_2)">
<rect width="69" height="73" rx="34.5" fill="white"/>
<ellipse cx="41.4604" cy="41.516" rx="25.4874" ry="25.5616" transform="rotate(-0.121944 41.4604 41.516)" fill="#FBF2F0"/>
<path d="M50.912 20.016V20.976C49.888 21.008 49.12 21.136 48.608 21.36C48.096 21.552 47.744 21.936 47.552 22.512C47.392 23.056 47.312 23.92 47.312 25.104V48.912C47.312 50.064 47.392 50.928 47.552 51.504C47.744 52.08 48.096 52.464 48.608 52.656C49.12 52.848 49.888 52.976 50.912 53.04V54C50.016 53.936 48.88 53.904 47.504 53.904C46.16 53.872 44.784 53.856 43.376 53.856C41.84 53.856 40.4 53.872 39.056 53.904C37.712 53.904 36.624 53.936 35.792 54V53.04C36.88 52.976 37.696 52.848 38.24 52.656C38.816 52.464 39.2 52.08 39.392 51.504C39.584 50.928 39.68 50.064 39.68 48.912V22.944H40.016L28.112 54.048H27.344L14.384 23.136V46.128C14.384 47.888 14.48 49.248 14.672 50.208C14.864 51.136 15.28 51.808 15.92 52.224C16.592 52.608 17.632 52.88 19.04 53.04V54C18.432 53.936 17.632 53.904 16.64 53.904C15.648 53.872 14.72 53.856 13.856 53.856C13.12 53.856 12.368 53.872 11.6 53.904C10.832 53.904 10.192 53.936 9.68 54V53.04C10.704 52.88 11.472 52.608 11.984 52.224C12.496 51.84 12.832 51.216 12.992 50.352C13.184 49.456 13.28 48.24 13.28 46.704V25.104C13.28 23.92 13.184 23.056 12.992 22.512C12.832 21.936 12.48 21.552 11.936 21.36C11.424 21.136 10.672 21.008 9.68 20.976V20.016C10.192 20.048 10.832 20.08 11.6 20.112C12.368 20.144 13.12 20.16 13.856 20.16C15.232 20.16 16.576 20.144 17.888 20.112C19.232 20.08 20.416 20.048 21.44 20.016L31.52 44.352L30.32 45.456L39.968 20.16C40.512 20.16 41.072 20.16 41.648 20.16C42.224 20.16 42.8 20.16 43.376 20.16C44.784 20.16 46.16 20.144 47.504 20.112C48.88 20.08 50.016 20.048 50.912 20.016Z" fill="#141414"/>
<path d="M58.9644 47.28C60.2124 47.28 61.2044 47.616 61.9404 48.288C62.6764 48.928 63.0444 49.824 63.0444 50.976C63.0444 52.128 62.6764 53.04 61.9404 53.712C61.2044 54.352 60.2124 54.672 58.9644 54.672C57.7164 54.672 56.7244 54.352 55.9884 53.712C55.2524 53.04 54.8844 52.128 54.8844 50.976C54.8844 49.824 55.2524 48.928 55.9884 48.288C56.7244 47.616 57.7164 47.28 58.9644 47.28Z" fill="#EAABA3"/>
</g>
<defs>
<clipPath id="clip0_347_2">
<rect width="69" height="73" rx="34.5" fill="white"/>
</clipPath>
</defs>
</svg>
