<svg width="166" height="41" viewBox="0 0 166 41" fill="none" xmlns="http://www.w3.org/2000/svg">
<g clip-path="url(#clip0_317_4)">
<rect width="166" height="41" fill="white"/>
<path d="M43.912 5.016V5.976C42.888 6.008 42.12 6.136 41.608 6.36C41.096 6.552 40.744 6.936 40.552 7.512C40.392 8.056 40.312 8.92 40.312 10.104V33.912C40.312 35.064 40.392 35.928 40.552 36.504C40.744 37.08 41.096 37.464 41.608 37.656C42.12 37.848 42.888 37.976 43.912 38.04V39C43.016 38.936 41.88 38.904 40.504 38.904C39.16 38.872 37.784 38.856 36.376 38.856C34.84 38.856 33.4 38.872 32.056 38.904C30.712 38.904 29.624 38.936 28.792 39V38.04C29.88 37.976 30.696 37.848 31.24 37.656C31.816 37.464 32.2 37.08 32.392 36.504C32.584 35.928 32.68 35.064 32.68 33.912V7.944H33.016L21.112 39.048H20.344L7.384 8.136V31.128C7.384 32.888 7.48 34.248 7.672 35.208C7.864 36.136 8.28 36.808 8.92 37.224C9.592 37.608 10.632 37.88 12.04 38.04V39C11.432 38.936 10.632 38.904 9.64 38.904C8.648 38.872 7.72 38.856 6.856 38.856C6.12 38.856 5.368 38.872 4.6 38.904C3.832 38.904 3.192 38.936 2.68 39V38.04C3.704 37.88 4.472 37.608 4.984 37.224C5.496 36.84 5.832 36.216 5.992 35.352C6.184 34.456 6.28 33.24 6.28 31.704V10.104C6.28 8.92 6.184 8.056 5.992 7.512C5.832 6.936 5.48 6.552 4.936 6.36C4.424 6.136 3.672 6.008 2.68 5.976V5.016C3.192 5.048 3.832 5.08 4.6 5.112C5.368 5.144 6.12 5.16 6.856 5.16C8.232 5.16 9.576 5.144 10.888 5.112C12.232 5.08 13.416 5.048 14.44 5.016L24.52 29.352L23.32 30.456L32.968 5.16C33.512 5.16 34.072 5.16 34.648 5.16C35.224 5.16 35.8 5.16 36.376 5.16C37.784 5.16 39.16 5.144 40.504 5.112C41.88 5.08 43.016 5.048 43.912 5.016ZM52.8764 1.8C54.2204 1.8 55.2764 2.136 56.0444 2.808C56.8444 3.448 57.2444 4.344 57.2444 5.496C57.2444 6.648 56.8444 7.56 56.0444 8.232C55.2764 8.872 54.2204 9.192 52.8764 9.192C51.5324 9.192 50.4604 8.872 49.6604 8.232C48.8924 7.56 48.5084 6.648 48.5084 5.496C48.5084 4.344 48.8924 3.448 49.6604 2.808C50.4604 2.136 51.5324 1.8 52.8764 1.8ZM56.6204 13.656V34.536C56.6204 35.88 56.8444 36.792 57.2924 37.272C57.7724 37.752 58.5724 37.992 59.6924 37.992V39C59.1164 38.968 58.2204 38.936 57.0044 38.904C55.7884 38.84 54.5564 38.808 53.3084 38.808C52.0604 38.808 50.7964 38.84 49.5164 38.904C48.2364 38.936 47.2764 38.968 46.6364 39V37.992C47.7564 37.992 48.5404 37.752 48.9884 37.272C49.4684 36.792 49.7084 35.88 49.7084 34.536V19.416C49.7084 17.976 49.4844 16.92 49.0364 16.248C48.6204 15.544 47.8204 15.192 46.6364 15.192V14.184C47.6604 14.28 48.6524 14.328 49.6124 14.328C50.9564 14.328 52.2044 14.28 53.3564 14.184C54.5404 14.056 55.6284 13.88 56.6204 13.656ZM71.569 1.416V34.536C71.569 35.88 71.793 36.792 72.241 37.272C72.721 37.752 73.521 37.992 74.641 37.992V39C74.033 38.968 73.121 38.936 71.905 38.904C70.689 38.84 69.457 38.808 68.209 38.808C66.961 38.808 65.697 38.84 64.417 38.904C63.169 38.936 62.225 38.968 61.585 39V37.992C62.705 37.992 63.489 37.752 63.937 37.272C64.417 36.792 64.657 35.88 64.657 34.536V7.176C64.657 5.736 64.433 4.68 63.985 4.008C63.569 3.304 62.769 2.952 61.585 2.952V1.944C62.609 2.04 63.601 2.088 64.561 2.088C65.873 2.088 67.121 2.04 68.305 1.944C69.489 1.816 70.577 1.64 71.569 1.416ZM88.5985 13.512C91.4145 13.512 93.6225 14.344 95.2225 16.008C96.8225 17.672 97.6225 20.392 97.6225 24.168H81.8305L81.7345 23.256H91.5745C91.6065 21.688 91.5105 20.248 91.2865 18.936C91.0625 17.592 90.7105 16.52 90.2305 15.72C89.7505 14.92 89.1105 14.52 88.3105 14.52C87.1905 14.52 86.2305 15.224 85.4305 16.632C84.6625 18.04 84.1985 20.376 84.0385 23.64L84.1825 23.928C84.1505 24.312 84.1185 24.712 84.0865 25.128C84.0865 25.544 84.0865 25.976 84.0865 26.424C84.0865 28.632 84.3905 30.424 84.9985 31.8C85.6385 33.176 86.4385 34.184 87.3985 34.824C88.3585 35.432 89.3345 35.736 90.3265 35.736C90.9985 35.736 91.6865 35.64 92.3905 35.448C93.1265 35.224 93.8625 34.84 94.5985 34.296C95.3345 33.72 96.0225 32.92 96.6625 31.896L97.5265 32.184C97.1425 33.4 96.5345 34.584 95.7025 35.736C94.8705 36.888 93.8145 37.832 92.5345 38.568C91.2545 39.304 89.7185 39.672 87.9265 39.672C85.7505 39.672 83.8305 39.208 82.1665 38.28C80.5025 37.352 79.1905 35.944 78.2305 34.056C77.3025 32.168 76.8385 29.768 76.8385 26.856C76.8385 23.88 77.3345 21.4 78.3265 19.416C79.3505 17.432 80.7425 15.96 82.5025 15C84.2945 14.008 86.3265 13.512 88.5985 13.512ZM117.977 13.512C119.321 13.512 120.409 13.688 121.241 14.04C122.105 14.36 122.777 14.808 123.257 15.384C123.769 15.992 124.137 16.776 124.361 17.736C124.617 18.696 124.745 19.992 124.745 21.624V34.536C124.745 35.88 124.969 36.792 125.417 37.272C125.897 37.752 126.697 37.992 127.817 37.992V39C127.209 38.968 126.297 38.936 125.081 38.904C123.865 38.84 122.665 38.808 121.481 38.808C120.265 38.808 119.065 38.84 117.881 38.904C116.729 38.936 115.849 38.968 115.241 39V37.992C116.201 37.992 116.873 37.752 117.257 37.272C117.641 36.792 117.833 35.88 117.833 34.536V19.608C117.833 18.808 117.753 18.12 117.593 17.544C117.433 16.936 117.145 16.472 116.729 16.152C116.313 15.8 115.689 15.624 114.857 15.624C113.993 15.624 113.193 15.864 112.457 16.344C111.753 16.824 111.177 17.496 110.729 18.36C110.313 19.192 110.105 20.136 110.105 21.192V34.536C110.105 35.88 110.297 36.792 110.681 37.272C111.097 37.752 111.769 37.992 112.697 37.992V39C112.121 38.968 111.273 38.936 110.153 38.904C109.065 38.84 107.929 38.808 106.745 38.808C105.529 38.808 104.281 38.84 103.001 38.904C101.721 38.936 100.761 38.968 100.121 39V37.992C101.241 37.992 102.025 37.752 102.473 37.272C102.953 36.792 103.193 35.88 103.193 34.536V19.416C103.193 17.976 102.969 16.92 102.521 16.248C102.105 15.544 101.305 15.192 100.121 15.192V14.184C101.145 14.28 102.137 14.328 103.097 14.328C104.441 14.328 105.689 14.28 106.841 14.184C108.025 14.056 109.113 13.88 110.105 13.656V17.976C110.905 16.344 111.993 15.192 113.369 14.52C114.745 13.848 116.281 13.512 117.977 13.512ZM136.229 39.336C134.789 39.336 133.589 39.064 132.629 38.52C131.669 37.976 130.965 37.256 130.517 36.36C130.069 35.432 129.845 34.424 129.845 33.336C129.845 31.96 130.149 30.84 130.757 29.976C131.397 29.112 132.213 28.408 133.205 27.864C134.197 27.32 135.237 26.872 136.325 26.52C137.445 26.168 138.501 25.832 139.493 25.512C140.517 25.16 141.333 24.76 141.941 24.312C142.581 23.832 142.901 23.224 142.901 22.488V18.744C142.901 17.912 142.757 17.176 142.469 16.536C142.213 15.864 141.797 15.352 141.221 15C140.677 14.648 139.957 14.472 139.061 14.472C138.421 14.472 137.781 14.568 137.141 14.76C136.501 14.92 135.973 15.208 135.557 15.624C136.453 15.944 137.141 16.44 137.621 17.112C138.133 17.752 138.389 18.488 138.389 19.32C138.389 20.408 138.005 21.272 137.237 21.912C136.501 22.552 135.621 22.872 134.597 22.872C133.445 22.872 132.565 22.52 131.957 21.816C131.381 21.08 131.093 20.2 131.093 19.176C131.093 18.248 131.317 17.48 131.765 16.872C132.245 16.264 132.901 15.688 133.733 15.144C134.629 14.632 135.701 14.232 136.949 13.944C138.229 13.656 139.605 13.512 141.077 13.512C142.549 13.512 143.877 13.672 145.061 13.992C146.245 14.28 147.237 14.824 148.037 15.624C148.773 16.36 149.253 17.272 149.477 18.36C149.701 19.416 149.813 20.76 149.813 22.392V35.448C149.813 36.248 149.893 36.808 150.053 37.128C150.213 37.416 150.485 37.56 150.869 37.56C151.157 37.56 151.429 37.48 151.685 37.32C151.973 37.16 152.277 36.968 152.597 36.744L153.077 37.56C152.405 38.136 151.621 38.584 150.725 38.904C149.861 39.192 148.885 39.336 147.797 39.336C146.613 39.336 145.669 39.176 144.965 38.856C144.261 38.504 143.749 38.04 143.429 37.464C143.141 36.888 142.997 36.216 142.997 35.448C142.229 36.664 141.301 37.624 140.213 38.328C139.125 39 137.797 39.336 136.229 39.336ZM139.637 36.264C140.277 36.264 140.853 36.12 141.365 35.832C141.909 35.512 142.421 35 142.901 34.296V24.456C142.613 24.936 142.213 25.368 141.701 25.752C141.189 26.136 140.645 26.536 140.069 26.952C139.493 27.336 138.933 27.768 138.389 28.248C137.877 28.728 137.461 29.32 137.141 30.024C136.821 30.728 136.661 31.576 136.661 32.568C136.661 33.816 136.933 34.744 137.477 35.352C138.021 35.96 138.741 36.264 139.637 36.264Z" fill="#141414"/>
<path d="M159.777 32.28C161.025 32.28 162.017 32.616 162.753 33.288C163.489 33.928 163.857 34.824 163.857 35.976C163.857 37.128 163.489 38.04 162.753 38.712C162.017 39.352 161.025 39.672 159.777 39.672C158.529 39.672 157.537 39.352 156.801 38.712C156.065 38.04 155.697 37.128 155.697 35.976C155.697 34.824 156.065 33.928 156.801 33.288C157.537 32.616 158.529 32.28 159.777 32.28Z" fill="#EAABA3"/>
</g>
<defs>
<clipPath id="clip0_317_4">
<rect width="166" height="41" fill="white"/>
</clipPath>
</defs>
</svg>
